<svg width="730" height="146" viewBox="0 0 730 146" fill="none" xmlns="http://www.w3.org/2000/svg">
<g clip-path="url(#clip0_4_16)">
<path d="M48.3207 35.5482C44.4291 35.5482 42.9698 37.7246 42.9698 40.2638C42.9698 44.7979 46.5371 47.6998 55.2932 51.1457C82.8587 62.0277 93.7228 74.7234 93.7228 99.2079C93.7228 123.692 78.6428 144.912 45.5642 144.912C18.323 144.912 0 131.128 0 105.193C0 93.2228 3.24301 85.424 7.62106 81.2526C8.20387 80.6776 8.95191 80.3558 9.72901 80.3458C10.2265 80.3571 10.7126 80.5137 11.1393 80.8C11.5659 81.0863 11.9182 81.4924 12.1613 81.9781C21.4038 95.7619 35.0244 104.649 45.5642 104.649C50.9151 104.649 53.1852 102.835 53.1852 99.5706C53.1852 95.9433 50.2665 93.9483 39.4025 89.9582C19.6202 82.5222 2.43225 70.7333 2.43225 44.9793C2.43225 20.3134 18.4851 0.907227 47.9964 0.907227C65.1843 0.907227 79.2914 6.34822 88.8583 14.5097C89.5021 15.0286 90.0281 15.709 90.3942 16.4965C90.7603 17.2839 90.9562 18.1564 90.9662 19.0439C90.9662 25.3917 84.1559 40.9892 78.3185 49.1507C78.0668 49.5596 77.7266 49.8905 77.3296 50.1125C76.9327 50.3345 76.4919 50.4404 76.0484 50.4203C75.1747 50.3974 74.3274 50.0814 73.6161 49.5135C64.2925 40.6084 55.131 35.5482 48.3207 35.5482Z" fill="#20388A"/>
<path d="M172.69 94.3103C175.446 101.928 179.014 127.682 179.014 136.75C179.014 139.833 177.23 142.01 173.825 142.191C164.258 142.735 152.745 142.917 141.557 142.917C128.261 142.917 115.613 142.554 106.695 142.191C103.127 142.01 101.182 141.284 101.019 136.931C100.695 128.77 100.371 119.702 100.371 110.271C100.371 77.4433 102.154 40.0818 107.505 8.524C107.581 7.25323 108.067 6.05648 108.872 5.1559C109.677 4.25532 110.747 3.71211 111.884 3.62711C115.775 3.26438 122.261 3.08301 129.72 3.08301C138.476 3.08301 147.557 3.44574 152.583 3.80848C155.015 3.98984 155.664 5.07804 155.664 6.52897C155.664 11.0631 141.071 68.5563 141.071 92.3153C141.071 101.021 143.016 103.197 148.205 103.197C154.529 103.197 161.826 98.6631 166.204 94.8545C168.312 93.0408 169.447 92.4967 170.42 92.4967C170.928 92.4529 171.434 92.6106 171.849 92.9422C172.264 93.2738 172.562 93.7581 172.69 94.3103Z" fill="#20388A"/>
<path d="M212.903 142.735C206.029 142.897 199.152 142.594 192.31 141.828C189.716 141.466 188.58 140.377 187.77 136.569C186.31 129.677 184.527 107.55 184.527 82.8843C184.527 41.7141 188.418 15.96 190.364 8.34264C190.554 7.07661 191.122 5.92025 191.977 5.06337C192.831 4.20649 193.921 3.70002 195.066 3.62711C201.228 3.26438 207.714 3.08301 214.2 3.08301C221.011 3.08301 227.821 3.26438 233.983 3.62711C236.09 3.80848 237.226 4.89668 237.063 7.25444C237.063 12.1513 228.632 36.9986 228.632 72.1836C228.632 109.364 236.739 134.936 236.739 138.564C236.739 140.74 235.604 141.647 233.334 141.828C226.686 142.554 219.957 142.735 212.903 142.735Z" fill="#20388A"/>
<path d="M254.008 142.173C251.576 141.992 250.117 140.904 249.792 138.365C247.386 118.044 246.248 97.5603 246.387 77.0627C246.387 45.5049 248.657 16.849 251.414 7.78069C251.699 6.63324 252.283 5.60666 253.092 4.83155C253.9 4.05644 254.897 3.56784 255.954 3.42789C260.17 3.24653 265.034 3.06517 269.737 3.06517C274.439 3.06517 278.979 3.24653 282.384 3.42789C283.26 3.51369 284.103 3.84003 284.838 4.37791C285.574 4.9158 286.179 5.64857 286.6 6.51112C291.141 13.5844 298.437 29.726 313.355 65.2739C313.842 66.3621 314.328 66.7248 314.977 66.7248C315.95 66.7248 316.76 65.6366 316.76 64.0043C316.76 37.1621 307.356 13.0403 307.356 7.23659C307.334 6.7601 307.396 6.28349 307.539 5.83402C307.682 5.38456 307.903 4.97109 308.19 4.6173C308.476 4.2635 308.821 3.97633 309.207 3.77223C309.593 3.56813 310.01 3.45112 310.436 3.42789C314.977 3.06516 321.625 2.88379 328.273 2.88379C333.786 2.88379 339.137 3.06516 343.191 3.42789C344.239 3.3818 345.262 3.78987 346.047 4.56702C346.833 5.34418 347.32 6.43044 347.407 7.59933C350.325 27.0055 351.947 58.5633 351.947 87.9447C352.1 104.3 351.396 120.651 349.839 136.914C349.819 137.644 349.667 138.363 349.393 139.027C349.119 139.69 348.728 140.285 348.243 140.776C347.759 141.267 347.191 141.644 346.574 141.884C345.957 142.124 345.302 142.222 344.65 142.173C340.11 142.536 332.327 142.717 325.354 142.717C321.511 142.754 317.668 142.572 313.842 142.173C310.112 141.629 308.977 140.904 308.329 136.914C305.655 118.542 299.58 100.998 290.492 85.4055C289.519 83.9546 288.708 83.2291 287.735 83.2291C286.276 83.2291 285.627 85.4055 285.627 87.7633C285.627 103.724 292.276 136.37 292.276 138.546C292.276 141.266 291.141 141.992 289.357 142.173C284.979 142.536 278.006 142.717 271.196 142.717C264.791 142.736 258.467 142.554 254.008 142.173Z" fill="#20388A"/>
<path d="M399.376 69.8261C399.376 96.6683 404.078 104.648 411.051 104.648C415.429 104.648 417.699 100.658 417.699 95.3988C417.701 93.0615 417.184 90.7602 416.193 88.7023C415.202 86.6444 413.769 84.8944 412.024 83.6099C411.547 83.285 411.15 82.8336 410.867 82.2957C410.584 81.7579 410.425 81.1502 410.402 80.5267C410.438 79.8382 410.637 79.1729 410.979 78.5991C411.321 78.0254 411.793 77.5639 412.348 77.2621C420.78 72.1838 444.94 60.9391 448.507 60.9391C450.129 60.9391 451.426 62.2087 451.75 65.1105C453.344 78.7062 454.264 92.39 454.507 106.099C454.507 130.584 438.616 146 410.078 146C377.161 146 357.703 122.06 357.703 81.2522C357.703 37.7242 376.026 1.26953 417.699 1.26953C444.291 1.26953 453.534 15.0534 453.534 33.3714C453.506 35.1859 453.147 36.9748 452.477 38.628C451.808 40.2811 450.843 41.7635 449.642 42.9838C441.535 52.0521 422.563 63.1155 416.077 63.1155C415.706 63.1248 415.337 63.0437 414.997 62.8778C414.656 62.7118 414.352 62.465 414.105 62.1544C413.858 61.8439 413.675 61.477 413.567 61.0793C413.46 60.6815 413.431 60.2624 413.483 59.8509C413.483 58.4 413.645 55.8608 413.645 53.8658C413.645 47.8807 412.51 40.9888 408.132 40.9888C402.294 40.9888 399.376 49.8758 399.376 69.8261Z" fill="#20388A"/>
<path d="M466.992 142.173C463.587 141.991 461.804 141.266 461.479 138.001C460.802 130.347 460.472 122.659 460.49 114.968C460.344 70.533 470.884 19.2063 506.557 1.25102C507.83 0.561781 509.203 0.131861 510.611 -0.0185547C511.881 0.0330006 513.115 0.472021 514.178 1.25102C546.122 20.2945 559.094 63.4597 559.094 113.517C559.094 120.59 558.769 128.026 558.283 135.462C557.959 139.996 555.851 141.447 552.445 141.81C547.419 142.354 541.581 142.535 535.906 142.535C528.772 142.535 521.799 142.173 517.259 141.81C514.989 141.629 513.529 140.54 513.529 138.001C513.529 134.374 516.124 125.85 516.124 114.605C516.124 109.708 514.178 107.713 510.773 107.713C505.26 107.713 500.882 110.071 500.882 118.414C500.882 127.119 502.017 133.83 502.017 138.727C502.017 140.54 501.368 141.629 498.936 141.81C494.396 142.173 488.072 142.354 481.262 142.354C476.235 142.372 471.695 142.372 466.992 142.173ZM509.314 79.0572C510.773 78.6945 512.232 77.969 513.692 77.4249C514.487 77.0751 515.158 76.4408 515.597 75.6207C516.037 74.8006 516.222 73.8408 516.124 72.8907C515.835 64.9504 514.412 57.113 511.908 49.6758C511.421 48.4063 510.935 47.8622 510.286 47.8622C509.638 47.8622 508.827 48.4063 508.178 49.6758C503.476 57.8373 501.692 70.533 501.692 78.6945C501.692 80.3268 502.341 80.6895 503.152 80.6895C505.256 80.4279 507.324 79.886 509.314 79.0753V79.0572Z" fill="#20388A"/>
<path d="M596.145 142.735C589.271 142.897 582.394 142.594 575.552 141.828C572.941 141.466 571.806 140.377 570.995 136.569C569.536 129.677 567.753 107.55 567.753 82.8843C567.753 41.7141 571.644 15.96 573.59 8.34264C573.78 7.07373 574.351 5.91514 575.209 5.05792C576.067 4.2007 577.16 3.69603 578.308 3.62711C584.47 3.26438 590.956 3.08301 597.442 3.08301C604.252 3.08301 611.063 3.26438 617.224 3.62711C619.332 3.80848 620.467 4.89668 620.305 7.25444C620.305 12.1513 611.874 36.9986 611.874 72.1836C611.874 109.364 619.981 134.936 619.981 138.564C619.981 140.74 618.846 141.647 616.576 141.828C609.847 142.554 603.036 142.735 596.145 142.735Z" fill="#20388A"/>
<path d="M638.045 4.33515C644.206 3.24695 665.788 2.52148 673.085 2.52148C703.407 2.52148 725.46 11.5898 725.46 39.883C725.46 55.8432 719.622 66.1811 710.866 76.1563C710.122 76.9061 709.659 77.9425 709.569 79.0581C709.571 79.5251 709.675 79.9844 709.873 80.3956C710.071 80.8067 710.357 81.1571 710.704 81.4159C725.784 96.1066 730 135.463 730 137.821C730.033 138.402 729.955 138.985 729.772 139.53C729.588 140.075 729.302 140.57 728.934 140.982C728.566 141.393 728.123 141.713 727.636 141.918C727.149 142.124 726.628 142.211 726.108 142.174C722.217 142.355 714.92 142.536 707.623 142.536C701.624 142.536 695.624 142.355 691.57 142.174C687.841 141.992 686.544 140.904 686.219 138.365C683.625 112.248 681.355 97.9202 675.68 97.9202C672.437 97.9202 670.653 102.636 670.653 109.709C670.653 120.954 673.734 136.551 673.734 138.909C673.734 140.904 672.599 141.811 670.653 141.992C665.934 142.355 659.302 142.536 652.314 142.536C646.817 142.536 641.125 142.355 635.937 141.992C633.667 141.811 631.559 141.267 631.234 137.639C629.373 118.605 628.398 99.4753 628.316 80.3277C628.222 56.1226 630.122 31.9593 633.991 8.14384C634.477 5.62285 635.774 4.71602 638.045 4.33515ZM672.356 71.2775C675.761 71.2775 682.247 56.5868 682.247 43.3471C682.247 36.4551 679.814 33.916 676.734 33.916C675.273 33.922 673.874 34.574 672.842 35.7297C670.41 38.4502 668.788 44.4353 668.788 56.7682C668.707 68.557 669.518 71.2775 672.356 71.2775Z" fill="#20388A"/>
</g>
<defs>
<clipPath id="clip0_4_16">
<rect width="730" height="146" fill="white"/>
</clipPath>
</defs>
</svg>
